<svg width="123" height="109" viewBox="0 0 123 109" fill="none" xmlns="http://www.w3.org/2000/svg">
<path d="M48.7445 106.889V79.4124C48.7445 78.2618 49.2062 77.1583 50.028 76.3447C50.8499 75.5311 51.9645 75.074 53.1268 75.074H64.8129C65.9751 75.074 67.0898 75.5311 67.9116 76.3447C68.7335 77.1583 69.1952 78.2618 69.1952 79.4124V106.889M77.9598 103.996V66.3973V103.996ZM7.84306 66.3973V103.996V66.3973ZM65.9943 31.6904H19.8085C15.8298 31.6904 12.2363 33.8596 10.6915 37.1965L2.78516 54.2861C0.122917 60.0362 4.54356 66.551 11.4018 66.7589H11.767C17.5005 66.7589 22.1476 62.2072 22.1476 57.3175C22.1476 62.1982 26.7965 66.7589 32.53 66.7589C38.2635 66.7589 42.9014 62.5326 42.9014 57.3175C42.9014 62.1982 47.5485 66.7589 53.282 66.7589C59.0155 66.7589 63.6644 62.5326 63.6644 57.3175C63.6644 62.5326 68.3114 66.7589 74.0449 66.7589H74.401C81.2593 66.5474 85.6799 60.0326 83.0177 54.2861L75.1113 37.1965C73.5665 33.8596 69.973 31.6904 65.9943 31.6904ZM2 106.889H83.8028H2ZM20.9899 75.074H35.5976C36.7598 75.074 37.8745 75.5311 38.6963 76.3447C39.5182 77.1583 39.9799 78.2618 39.9799 79.4124V95.3197H16.6076V79.4124C16.6076 78.2618 17.0694 77.1583 17.8912 76.3447C18.713 75.5311 19.8277 75.074 20.9899 75.074Z" stroke="#323331" stroke-width="3" stroke-linecap="round" stroke-linejoin="round"/>
<circle cx="79.5417" cy="43.4577" r="43.4577" fill="#FDA558"/>
<mask id="mask0_2_5318" style="mask-type:alpha" maskUnits="userSpaceOnUse" x="36" y="0" width="87" height="87">
<circle cx="79.5419" cy="43.4577" r="43.4577" fill="#FDA558"/>
</mask>
<g mask="url(#mask0_2_5318)">
<path d="M65.9944 31.6904H19.8087C15.8299 31.6904 12.2364 33.8596 10.6917 37.1965L2.78528 54.2861C0.123039 60.0362 4.54368 66.551 11.402 66.7589H11.7672C17.5007 66.7589 22.1477 62.2072 22.1477 57.3175C22.1477 62.1982 26.7966 66.7589 32.5301 66.7589C38.2636 66.7589 42.9015 62.5326 42.9015 57.3175C42.9015 62.1982 47.5486 66.7589 53.2821 66.7589C59.0156 66.7589 63.6645 62.5326 63.6645 57.3175C63.6645 62.5326 68.3115 66.7589 74.045 66.7589H74.4011C81.2594 66.5474 85.68 60.0326 83.0178 54.2861L75.1114 37.1965C73.5666 33.8596 69.9732 31.6904 65.9944 31.6904ZM20.9901 75.074H35.5977C36.76 75.074 37.8746 75.5311 38.6965 76.3447C39.5183 77.1583 39.98 78.2618 39.98 79.4124V95.3197H16.6078V79.4124C16.6078 78.2618 17.0695 77.1583 17.8913 76.3447C18.7132 75.5311 19.8278 75.074 20.9901 75.074ZM48.7446 106.889V79.4124C48.7446 78.2618 49.2063 77.1583 50.0281 76.3447C50.85 75.5311 51.9646 75.074 53.1269 75.074H64.813C65.9753 75.074 67.0899 75.5311 67.9118 76.3447C68.7336 77.1583 69.1953 78.2618 69.1953 79.4124V106.889" fill="#FDA558"/>
<path d="M77.9599 103.996V66.3973M7.84318 66.3973V103.996M2.00012 106.889H83.8029M48.7446 106.889V79.4124C48.7446 78.2618 49.2063 77.1583 50.0281 76.3447C50.85 75.5311 51.9646 75.074 53.1269 75.074H64.813C65.9753 75.074 67.0899 75.5311 67.9118 76.3447C68.7336 77.1583 69.1953 78.2618 69.1953 79.4124V106.889M65.9944 31.6904H19.8087C15.8299 31.6904 12.2364 33.8596 10.6917 37.1965L2.78528 54.2861C0.123039 60.0362 4.54368 66.551 11.402 66.7589H11.7672C17.5007 66.7589 22.1477 62.2072 22.1477 57.3175C22.1477 62.1982 26.7966 66.7589 32.5301 66.7589C38.2636 66.7589 42.9015 62.5326 42.9015 57.3175C42.9015 62.1982 47.5486 66.7589 53.2821 66.7589C59.0156 66.7589 63.6645 62.5326 63.6645 57.3175C63.6645 62.5326 68.3115 66.7589 74.045 66.7589H74.4011C81.2594 66.5474 85.68 60.0326 83.0178 54.2861L75.1114 37.1965C73.5666 33.8596 69.9732 31.6904 65.9944 31.6904ZM20.9901 75.074H35.5977C36.76 75.074 37.8746 75.5311 38.6965 76.3447C39.5183 77.1583 39.98 78.2618 39.98 79.4124V95.3197H16.6078V79.4124C16.6078 78.2618 17.0695 77.1583 17.8913 76.3447C18.7132 75.5311 19.8278 75.074 20.9901 75.074Z" stroke="#F8F8F8" stroke-width="3" stroke-linecap="round" stroke-linejoin="round"/>
</g>
</svg>
