<svg width="150" height="117" viewBox="0 0 150 117" fill="none" xmlns="http://www.w3.org/2000/svg">
<path d="M76.2637 60.0781H103.624V87.5161" stroke="#323331" stroke-width="3" stroke-linecap="round" stroke-linejoin="round"/>
<path d="M2 114.954L31.6495 85.2208C32.3754 84.4927 33.2372 83.915 34.1858 83.521C35.1343 83.1269 36.151 82.9241 37.1777 82.9241C38.2045 82.9241 39.2211 83.1269 40.1697 83.521C41.1182 83.915 41.9801 84.4927 42.706 85.2208L55.1013 97.6512C55.8272 98.3793 56.689 98.9569 57.6376 99.351C58.5861 99.7451 59.6028 99.9479 60.6295 99.9479C61.6563 99.9479 62.673 99.7451 63.6215 99.351C64.5701 98.9569 65.4319 98.3793 66.1578 97.6512L99.7159 63.998" stroke="#323331" stroke-width="3" stroke-linecap="round" stroke-linejoin="round"/>
<circle cx="103.622" cy="46.1928" r="46.1928" fill="#FDA558"/>
<mask id="mask0_2_5350" style="mask-type:alpha" maskUnits="userSpaceOnUse" x="57" y="0" width="93" height="93">
<circle cx="103.622" cy="46.1928" r="46.1928" fill="#FDA558"/>
</mask>
<g mask="url(#mask0_2_5350)">
<path d="M76.2637 60.0781H103.624V87.5161" fill="#FDA558"/>
<path d="M76.2637 60.0781H103.624V87.5161" stroke="#F8F8F8" stroke-width="3" stroke-linecap="round" stroke-linejoin="round"/>
<path d="M2 114.954L31.6495 85.2208C32.3754 84.4927 33.2372 83.915 34.1858 83.521C35.1343 83.1269 36.151 82.9241 37.1777 82.9241C38.2045 82.9241 39.2211 83.1269 40.1697 83.521C41.1182 83.915 41.9801 84.4927 42.706 85.2208L55.1013 97.6512C55.8272 98.3793 56.689 98.9569 57.6376 99.351C58.5861 99.7451 59.6028 99.9479 60.6295 99.9479C61.6563 99.9479 62.673 99.7451 63.6215 99.351C64.5701 98.9569 65.4319 98.3793 66.1578 97.6512L99.7159 63.998" fill="#FDA558"/>
<path d="M2 114.954L31.6495 85.2208C32.3754 84.4927 33.2372 83.915 34.1858 83.521C35.1343 83.1269 36.151 82.9241 37.1777 82.9241C38.2045 82.9241 39.2211 83.1269 40.1697 83.521C41.1182 83.915 41.9801 84.4927 42.706 85.2208L55.1013 97.6512C55.8272 98.3793 56.689 98.9569 57.6376 99.351C58.5861 99.7451 59.6028 99.9479 60.6295 99.9479C61.6563 99.9479 62.673 99.7451 63.6215 99.351C64.5701 98.9569 65.4319 98.3793 66.1578 97.6512L99.7159 63.998" stroke="#F8F8F8" stroke-width="3" stroke-linecap="round" stroke-linejoin="round"/>
</g>
</svg>
