<svg width="122" height="116" viewBox="0 0 122 116" fill="none" xmlns="http://www.w3.org/2000/svg">
<circle cx="76.5444" cy="45.4545" r="45.4545" fill="#FDA558"/>
<path d="M26.6174 113.843H57.3866H26.6174ZM42.002 113.843V89.1577V113.843ZM66.6174 67.5582C66.6174 57.7922 66.602 41.5945 66.5943 36.7018C66.5943 35.8835 66.2701 35.0986 65.6931 34.52C65.116 33.9413 64.3334 33.6162 63.5174 33.6162L20.4808 33.6664C19.6664 33.6663 18.8853 33.9901 18.3085 34.5667C17.7317 35.1433 17.4065 35.9257 17.4039 36.7423C17.4039 42.6398 17.3789 61.6531 17.3789 67.5582C17.3789 79.9548 33.3404 89.1577 41.9943 89.1577C50.6481 89.1577 66.6174 79.9548 66.6174 67.5582Z" stroke="#323331" stroke-width="3" stroke-linecap="round" stroke-linejoin="round"/>
<path d="M66.6154 42.873H82V45.9587C82 56.608 75.5481 67.5581 66.6154 67.5581M17.3846 42.873H2V45.9587C2 56.608 8.45192 67.5581 17.3846 67.5581V42.873Z" stroke="#323331" stroke-width="3" stroke-linecap="round" stroke-linejoin="round"/>
<mask id="mask0_2_5338" style="mask-type:alpha" maskUnits="userSpaceOnUse" x="31" y="0" width="91" height="91">
<circle cx="76.5444" cy="45.4545" r="45.4545" fill="#FDA558"/>
</mask>
<g mask="url(#mask0_2_5338)">
<path d="M26.6174 113.843H57.3866H26.6174ZM42.002 113.843V89.1577V113.843ZM66.6174 67.5582C66.6174 57.7922 66.602 41.5945 66.5943 36.7018C66.5943 35.8835 66.2701 35.0986 65.6931 34.52C65.116 33.9413 64.3334 33.6162 63.5174 33.6162L20.4808 33.6664C19.6664 33.6663 18.8853 33.9901 18.3085 34.5667C17.7317 35.1433 17.4065 35.9257 17.4039 36.7423C17.4039 42.6398 17.3789 61.6531 17.3789 67.5582C17.3789 79.9548 33.3404 89.1577 41.9943 89.1577C50.6481 89.1577 66.6174 79.9548 66.6174 67.5582Z" fill="#FDA558" stroke="#F8F8F8" stroke-width="3" stroke-linecap="round" stroke-linejoin="round"/>
<path d="M17.3846 42.873H2V45.9587C2 56.608 8.45192 67.5581 17.3846 67.5581V42.873ZM68 42.873H82V45.9587C82 56.608 76.9327 67.5581 68 67.5581" fill="#FDA558"/>
<path d="M68 42.873H82V45.9587C82 56.608 76.9327 67.5581 68 67.5581M17.3846 42.873H2V45.9587C2 56.608 8.45192 67.5581 17.3846 67.5581V42.873Z" stroke="#F8F8F8" stroke-width="3" stroke-linecap="round" stroke-linejoin="round"/>
</g>
</svg>
