<svg width="120" height="105" viewBox="0 0 120 105" fill="none" xmlns="http://www.w3.org/2000/svg">
<path d="M26.6294 103.315C28.3298 103.315 29.7082 101.932 29.7082 100.227C29.7082 98.5219 28.3298 97.1396 26.6294 97.1396C24.9291 97.1396 23.5507 98.5219 23.5507 100.227C23.5507 101.932 24.9291 103.315 26.6294 103.315Z" stroke="#323331" stroke-width="3" stroke-linecap="round" stroke-linejoin="round"/>
<path d="M69.7311 103.315C71.4314 103.315 72.8098 101.932 72.8098 100.227C72.8098 98.5219 71.4314 97.1396 69.7311 97.1396C68.0307 97.1396 66.6523 98.5219 66.6523 100.227C66.6523 101.932 68.0307 103.315 69.7311 103.315Z" stroke="#323331" stroke-width="3" stroke-linecap="round" stroke-linejoin="round"/>
<path d="M2 35.3906H14.3149L23.551 87.8771H72.8105" stroke="#323331" stroke-width="3" stroke-linecap="round" stroke-linejoin="round"/>
<path d="M23.55 75.5277H71.5473C71.9033 75.528 72.2484 75.4044 72.5238 75.1782C72.7992 74.952 72.9879 74.637 73.0578 74.2869L78.5994 46.5C78.6442 46.2759 78.6387 46.0447 78.5835 45.823C78.5283 45.6013 78.4247 45.3947 78.2802 45.218C78.1357 45.0413 77.9539 44.899 77.7479 44.8014C77.5419 44.7037 77.3168 44.6532 77.0889 44.6533H17.3926" stroke="#323331" stroke-width="3" stroke-linecap="round" stroke-linejoin="round"/>
<circle cx="74.5572" cy="45.3482" r="45.3482" fill="#FDA558"/>
<mask id="mask0_2_5324" style="mask-type:alpha" maskUnits="userSpaceOnUse" x="29" y="0" width="91" height="91">
<circle cx="74.5572" cy="45.3482" r="45.3482" fill="#FDA558"/>
</mask>
<g mask="url(#mask0_2_5324)">
<path d="M2 35.3906H14.3149L23.551 87.8771H72.8105" fill="#FDA558"/>
<path d="M2 35.3906H14.3149L23.551 87.8771H72.8105" stroke="#F8F8F8" stroke-width="3" stroke-linecap="round" stroke-linejoin="round"/>
<path d="M23.55 75.5277H71.5473C71.9033 75.528 72.2484 75.4044 72.5238 75.1782C72.7992 74.952 72.9879 74.637 73.0578 74.2869L78.5994 46.5C78.6442 46.2759 78.6387 46.0447 78.5835 45.823C78.5283 45.6013 78.4247 45.3947 78.2802 45.218C78.1357 45.0413 77.9539 44.899 77.7479 44.8014C77.5419 44.7037 77.3168 44.6532 77.089 44.6533H17.3926" fill="#FDA558"/>
<path d="M23.55 75.5277H71.5473C71.9033 75.528 72.2484 75.4044 72.5238 75.1782C72.7992 74.952 72.9879 74.637 73.0578 74.2869L78.5994 46.5C78.6442 46.2759 78.6387 46.0447 78.5835 45.823C78.5283 45.6013 78.4247 45.3947 78.2802 45.218C78.1357 45.0413 77.9539 44.899 77.7479 44.8014C77.5419 44.7037 77.3168 44.6532 77.0889 44.6533H17.3926" stroke="#F8F8F8" stroke-width="3" stroke-linecap="round" stroke-linejoin="round"/>
</g>
</svg>
