<svg width="46" height="47" viewBox="0 0 46 47" fill="none" xmlns="http://www.w3.org/2000/svg">
<path d="M23.6652 16.8036C22.2765 16.6673 20.8792 16.961 19.6649 17.6446C18.4505 18.3281 17.4783 19.3681 16.8815 20.6222C16.2846 21.8762 16.0923 23.283 16.3308 24.65C16.5693 26.0169 17.2269 27.2771 18.2137 28.2581C19.2005 29.2391 20.4682 29.8929 21.8432 30.13C23.2182 30.3671 24.6334 30.1759 25.8948 29.5825C27.1563 28.9892 28.2025 28.0228 28.8901 26.8155C29.5777 25.6083 29.8731 24.2193 29.736 22.8387C29.5796 21.291 28.8898 19.8446 27.7834 18.7447C26.677 17.6448 25.2221 16.9591 23.6652 16.8036V16.8036ZM39.9632 23.5C39.9588 24.2314 39.9048 24.9617 39.8013 25.6859L44.5829 29.4141C44.7911 29.5857 44.9313 29.8251 44.9788 30.0898C45.0262 30.3545 44.9778 30.6273 44.842 30.8598L40.3185 38.6402C40.1812 38.8705 39.9664 39.0451 39.7122 39.1334C39.458 39.2217 39.1805 39.2179 38.9288 39.1228L34.1801 37.2218C33.9182 37.1182 33.6346 37.0807 33.3546 37.1129C33.0746 37.145 32.8069 37.2456 32.5757 37.4058C31.851 37.902 31.0894 38.3427 30.2976 38.7243C30.0486 38.8446 29.8333 39.0239 29.6706 39.2466C29.5079 39.4692 29.4029 39.7282 29.3648 40.0007L28.653 45.0359C28.6062 45.3018 28.468 45.5433 28.262 45.7192C28.056 45.895 27.7949 45.9943 27.5234 46H18.4766C18.2096 45.9954 17.9521 45.9005 17.7466 45.731C17.5411 45.5615 17.3998 45.3274 17.346 45.0674L16.6352 40.0396C16.5953 39.7641 16.4876 39.5026 16.3215 39.2785C16.1554 39.0543 15.9362 38.8744 15.6834 38.7548C14.8925 38.3753 14.1335 37.9333 13.4137 37.4332C13.1833 37.2738 12.9165 37.1739 12.6376 37.1425C12.3586 37.1111 12.0761 37.1492 11.8157 37.2534L7.06801 39.1533C6.81641 39.2485 6.53908 39.2524 6.28485 39.1644C6.03063 39.0763 5.81583 38.9018 5.6783 38.6717L1.15486 30.8914C1.01886 30.6589 0.970263 30.386 1.01771 30.1213C1.06516 29.8565 1.20559 29.6171 1.41398 29.4457L5.45514 26.2915C5.67654 26.1168 5.85054 25.8898 5.96136 25.6313C6.07217 25.3728 6.11629 25.0909 6.08971 24.8111C6.05164 24.3727 6.02837 23.9353 6.02837 23.4968C6.02837 23.0584 6.05058 22.6273 6.08971 22.1984C6.11339 21.9203 6.06711 21.6407 5.95504 21.3849C5.84297 21.129 5.66863 20.9049 5.44774 20.7327L1.40869 17.5785C1.20368 17.4062 1.06622 17.1676 1.02039 16.9046C0.974558 16.6417 1.02329 16.371 1.15803 16.1402L5.68147 8.35981C5.81884 8.12954 6.03357 7.95487 6.2878 7.86659C6.54204 7.7783 6.81947 7.78207 7.07118 7.87722L11.8199 9.77815C12.0818 9.88181 12.3654 9.91926 12.6454 9.88714C12.9254 9.85503 13.1931 9.75436 13.4243 9.59416C14.149 9.09803 14.9106 8.65727 15.7024 8.2757C15.9514 8.15542 16.1667 7.97606 16.3294 7.75345C16.4921 7.53084 16.5971 7.27183 16.6352 6.9993L17.347 1.96414C17.3938 1.69822 17.532 1.45669 17.738 1.28084C17.944 1.10498 18.2051 1.00571 18.4766 1H27.5234C27.7904 1.00459 28.0479 1.09946 28.2534 1.26898C28.4589 1.4385 28.6002 1.67256 28.654 1.93259L29.3648 6.9604C29.4047 7.23593 29.5124 7.4974 29.6785 7.72155C29.8446 7.94569 30.0638 8.12558 30.3166 8.24521C31.1075 8.62472 31.8665 9.06667 32.5863 9.56682C32.8167 9.72623 33.0835 9.82613 33.3624 9.85751C33.6414 9.8889 33.9239 9.85079 34.1843 9.74661L38.932 7.84673C39.1836 7.75148 39.4609 7.74756 39.7151 7.83565C39.9694 7.92374 40.1842 8.09819 40.3217 8.32827L44.8451 16.1086C44.9811 16.3411 45.0297 16.614 44.9823 16.8787C44.9348 17.1435 44.7944 17.3829 44.586 17.5543L40.5449 20.7085C40.3225 20.8827 40.1475 21.1093 40.0357 21.3679C39.924 21.6264 39.879 21.9087 39.905 22.1889C39.9399 22.6242 39.9632 23.0616 39.9632 23.5Z" stroke="#F8F8F8" stroke-width="2" stroke-linecap="round" stroke-linejoin="round"/>
</svg>
