<svg width="45" height="45" viewBox="0 0 45 45" fill="none" xmlns="http://www.w3.org/2000/svg">
<path d="M44 22.5C44 10.6302 34.3698 1 22.5 1C10.6302 1 1 10.6302 1 22.5C1 34.3698 10.6302 44 22.5 44C34.3698 44 44 34.3698 44 22.5Z" stroke="#F8F8F8" stroke-width="2" stroke-miterlimit="10"/>
<path d="M33.25 22.4799C33.2426 20.3038 32.5757 18.181 31.3372 16.3913C30.0987 14.6017 28.3467 13.2292 26.3122 12.4548C24.2777 11.6804 22.0562 11.5404 19.9406 12.0534C17.8249 12.5663 15.9144 13.708 14.4609 15.3281M11.75 20.7219V22.5135C11.7576 24.6921 12.4258 26.8171 13.6663 28.6084C14.9068 30.3996 16.6614 31.7729 18.6987 32.5469C20.7359 33.321 22.9601 33.4596 25.0777 32.9443C27.1954 32.4291 29.107 31.2842 30.5604 29.6608" stroke="#F8F8F8" stroke-width="2" stroke-linecap="round" stroke-linejoin="round"/>
<path d="M35.6391 22.5002L33.059 24.8891L30.3608 22.5002M9.36133 22.5002L11.9414 20.1113L14.6396 22.5002H9.36133Z" stroke="#F8F8F8" stroke-width="2" stroke-linecap="round" stroke-linejoin="round"/>
</svg>
