<svg width="48" height="43" viewBox="0 0 48 43" fill="none" xmlns="http://www.w3.org/2000/svg">
<path d="M27.1429 41.9302V26.975C27.1429 26.3487 27.3912 25.7481 27.8332 25.3052C28.2753 24.8624 28.8748 24.6136 29.5 24.6136H35.7857C36.4109 24.6136 37.0104 24.8624 37.4525 25.3052C37.8945 25.7481 38.1429 26.3487 38.1429 26.975V41.9302M42.8571 40.356V19.8909V40.356ZM5.14286 19.8909V40.356V19.8909ZM36.4212 1H11.5788C9.43875 1 7.50589 2.18068 6.675 3.99696L2.42232 13.2987C0.990357 16.4285 3.36812 19.9745 7.05705 20.0877H7.25348C10.3374 20.0877 12.837 17.6102 12.837 14.9487C12.837 17.6053 15.3375 20.0877 18.4214 20.0877C21.5054 20.0877 24 17.7873 24 14.9487C24 17.6053 26.4996 20.0877 29.5835 20.0877C32.6674 20.0877 35.1679 17.7873 35.1679 14.9487C35.1679 17.7873 37.6675 20.0877 40.7514 20.0877H40.9429C44.6319 19.9725 47.0096 16.4266 45.5777 13.2987L41.325 3.99696C40.4941 2.18068 38.5612 1 36.4212 1ZM2 41.9302H46H2ZM12.2143 24.6136H20.0714C20.6966 24.6136 21.2961 24.8624 21.7382 25.3052C22.1802 25.7481 22.4286 26.3487 22.4286 26.975V35.6333H9.85714V26.975C9.85714 26.3487 10.1055 25.7481 10.5475 25.3052C10.9896 24.8624 11.5891 24.6136 12.2143 24.6136Z" stroke="#F8F8F8" stroke-width="2" stroke-linecap="round" stroke-linejoin="round"/>
</svg>
