<svg width="40" height="40" viewBox="0 0 40 40" fill="none" xmlns="http://www.w3.org/2000/svg">
<circle cx="20" cy="20" r="20" fill="#FFE2C8"/>
<path d="M19.5946 33.9997C20.4752 33.9997 21.1891 33.2858 21.1891 32.4051C21.1891 31.5245 20.4752 30.8105 19.5946 30.8105C18.7139 30.8105 18 31.5245 18 32.4051C18 33.2858 18.7139 33.9997 19.5946 33.9997Z" fill="#FDA558" stroke="#FDA558" stroke-miterlimit="10" stroke-linecap="round" stroke-linejoin="round"/>
<path d="M19.5 26C19.303 26 19.108 25.9678 18.926 25.9053C18.744 25.8429 18.5786 25.7513 18.4393 25.6358C18.3001 25.5203 18.1896 25.3833 18.1142 25.2324C18.0388 25.0815 18 24.9198 18 24.7565V7.24347C18 6.91368 18.158 6.5974 18.4393 6.3642C18.7206 6.13101 19.1022 6 19.5 6C19.8978 6 20.2794 6.13101 20.5607 6.3642C20.842 6.5974 21 6.91368 21 7.24347V24.7565C21 24.9198 20.9612 25.0815 20.8858 25.2324C20.8104 25.3833 20.6999 25.5203 20.5607 25.6358C20.4214 25.7513 20.256 25.8429 20.074 25.9053C19.892 25.9678 19.697 26 19.5 26V26Z" fill="#FDA558" stroke="#FDA558" stroke-miterlimit="10" stroke-linecap="round" stroke-linejoin="round"/>
</svg>
