<svg width="36" height="36" viewBox="0 0 36 36" fill="none" xmlns="http://www.w3.org/2000/svg">
<path d="M18 0C8.0588 0 0 8.0588 0 18C0 27.9412 8.0588 36 18 36C27.9412 36 36 27.9412 36 18C36 8.0588 27.9412 0 18 0Z" fill="#40B3E0"/>
<path d="M26.7585 10.3543L23.5434 26.564C23.5434 26.564 23.0938 27.6881 21.8573 27.1486L14.4382 21.4606L11.7405 20.1567L7.19914 18.6278C7.19914 18.6278 6.50221 18.3806 6.43471 17.841C6.36721 17.3014 7.22164 17.0092 7.22164 17.0092L25.2745 9.92735C25.2745 9.92735 26.7584 9.27541 26.7584 10.3546" fill="white"/>
<path d="M13.8681 26.3816C13.8681 26.3816 13.6516 26.3613 13.3816 25.5069C13.112 24.6526 11.7405 20.1563 11.7405 20.1563L22.6443 13.2319C22.6443 13.2319 23.2738 12.8497 23.2513 13.2319C23.2513 13.2319 23.3637 13.2994 23.0263 13.6141C22.6893 13.929 14.4609 21.3254 14.4609 21.3254" fill="#D2E5F1"/>
<path d="M17.283 23.6412L14.3485 26.3167C14.3485 26.3167 14.119 26.4908 13.8682 26.3817L14.4301 21.412" fill="#B5CFE4"/>
</svg>
